<svg xmlns="http://www.w3.org/2000/svg" xmlns:xlink="http://www.w3.org/1999/xlink" width="26.066" height="31.485" viewBox="0 0 26.066 31.485">
  <defs>
    <clipPath id="clip-path">
      <rect id="Rectangle_16927" data-name="Rectangle 16927" width="26.066" height="31.485" fill="#fff"/>
    </clipPath>
  </defs>
  <g id="Group_15515" data-name="Group 15515" transform="translate(0 0.001)">
    <g id="Group_15514" data-name="Group 15514" transform="translate(0 0)" clip-path="url(#clip-path)">
      <path id="Path_25933" data-name="Path 25933" d="M6.262,31.485A6.269,6.269,0,0,1,0,25.223V6.262A6.269,6.269,0,0,1,6.262,0H7.617a.845.845,0,0,1,0,1.69H6.262A4.578,4.578,0,0,0,1.69,6.262V25.223A4.578,4.578,0,0,0,6.262,29.8H19.8a4.578,4.578,0,0,0,4.572-4.572V6.262a4.53,4.53,0,0,0-1-2.858.845.845,0,0,1,.131-1.186.831.831,0,0,1,.528-.189.842.842,0,0,1,.66.317,6.287,6.287,0,0,1,1.373,3.914V25.223A6.269,6.269,0,0,1,19.8,31.485Zm1.355-6.772a.845.845,0,0,1,0-1.69H18.451a.845.845,0,0,1,0,1.69Zm0-5.417a.845.845,0,0,1,0-1.69H11a.845.845,0,0,1,0,1.69Zm10.157-1.355A2.879,2.879,0,0,1,14.9,15.066v-8.8a.844.844,0,1,1,1.688,0v8.8a1.188,1.188,0,0,0,2.375,0V4.908a3.219,3.219,0,0,0-6.438,0v8.126a.844.844,0,1,1-1.688,0V4.908a4.907,4.907,0,1,1,9.813,0V15.066a2.879,2.879,0,0,1-2.875,2.875" transform="translate(0 0.001)" fill="#fff"/>
    </g>
  </g>
</svg>
