<svg id="Group_15485" data-name="Group 15485" xmlns="http://www.w3.org/2000/svg" xmlns:xlink="http://www.w3.org/1999/xlink" width="27.428" height="31.77" viewBox="0 0 27.428 31.77">
  <defs>
    <clipPath id="clip-path">
      <rect id="Rectangle_16914" data-name="Rectangle 16914" width="27.428" height="31.77" transform="translate(0 0)" fill="#5ab25d"/>
    </clipPath>
  </defs>
  <g id="Group_15484" data-name="Group 15484" clip-path="url(#clip-path)">
    <path id="Path_25882" data-name="Path 25882" d="M6.08,7.886a.686.686,0,0,1-.021-1.372h7.654a.687.687,0,0,1,.653.707.688.688,0,0,1-.665.665Z" fill="#5ab25d"/>
    <path id="Path_25883" data-name="Path 25883" d="M6.114,13.314a.684.684,0,0,1-.652-.707.685.685,0,0,1,.664-.664H16.971A.686.686,0,0,1,17.5,13.1a.682.682,0,0,1-.479.215H6.114Z" fill="#5ab25d"/>
    <path id="Path_25884" data-name="Path 25884" d="M6.08,17.657a.686.686,0,0,1-.02-1.372h6.416a.687.687,0,0,1-.012,1.372Z" fill="#5ab25d"/>
    <path id="Path_25885" data-name="Path 25885" d="M6.113,22a.686.686,0,1,1-.053-1.371H9.871a.686.686,0,0,1,.532,1.155A.683.683,0,0,1,9.924,22H6.113Z" fill="#5ab25d"/>
    <path id="Path_25886" data-name="Path 25886" d="M5.028,28.512A5.041,5.041,0,0,1,0,23.484V5.028A5.041,5.041,0,0,1,5.028,0H18.056a5.041,5.041,0,0,1,5.027,5.029v8.9a.679.679,0,0,1-.684.653.691.691,0,0,1-.686-.665V5.028a3.666,3.666,0,0,0-3.657-3.657H5.028A3.667,3.667,0,0,0,1.371,5.028V23.484a3.669,3.669,0,0,0,3.657,3.658H9.871a.686.686,0,1,1,.058,1.37Z" fill="#5ab25d"/>
    <path id="Path_25887" data-name="Path 25887" d="M20.228,31.77a7.2,7.2,0,1,1,7.2-7.2,7.208,7.208,0,0,1-7.2,7.2m0-13.029a5.829,5.829,0,1,0,5.829,5.829A5.836,5.836,0,0,0,20.228,18.741Z" fill="#5ab25d"/>
    <path id="Path_25888" data-name="Path 25888" d="M19.5,26.919a.673.673,0,0,1-.483-.2L17.57,25.272a.686.686,0,0,1,.97-.969l.962.963,2.411-2.41a.686.686,0,1,1,.973.968l-2.9,2.9a.679.679,0,0,1-.393.195Z" fill="#5ab25d"/>
  </g>
</svg>
