<svg xmlns="http://www.w3.org/2000/svg" width="12.711" height="12.711" viewBox="0 0 12.711 12.711">
  <path id="calendar-day" d="M4.237,6.355H3.178A1.06,1.06,0,0,0,2.118,7.415V8.474A1.06,1.06,0,0,0,3.178,9.533H4.237A1.06,1.06,0,0,0,5.3,8.474V7.415A1.06,1.06,0,0,0,4.237,6.355ZM3.178,8.474V7.415H4.237V8.474Zm6.885-7.415h-.53V.53a.53.53,0,0,0-1.059,0v.53H4.237V.53a.53.53,0,0,0-1.059,0v.53h-.53A2.651,2.651,0,0,0,0,3.707v6.355a2.651,2.651,0,0,0,2.648,2.648h7.415a2.651,2.651,0,0,0,2.648-2.648V3.707A2.651,2.651,0,0,0,10.063,1.059ZM2.648,2.118h7.415a1.591,1.591,0,0,1,1.589,1.589v.53H1.059v-.53A1.591,1.591,0,0,1,2.648,2.118Zm7.415,9.533H2.648a1.591,1.591,0,0,1-1.589-1.589V5.3H11.652v4.767A1.591,1.591,0,0,1,10.063,11.652Z" fill="#8789c5"/>
</svg>
