<svg xmlns="http://www.w3.org/2000/svg" width="17.146" height="18.557" viewBox="0 0 17.146 18.557">
  <g id="download-pdf_2_" data-name="download-pdf (2)" transform="translate(-112.189 -75.815)">
    <g id="Group_15625" data-name="Group 15625" transform="translate(112.603 75.815)">
      <path id="Path_26052" data-name="Path 26052" d="M129.978,78.972l-.184.008-1.248-3.164h-8.076V92.937h13.542V81.281Z" transform="translate(-120.471 -75.815)" fill="#efefef"/>
    </g>
    <g id="Group_15626" data-name="Group 15626" transform="translate(119.356 75.815)">
      <path id="Path_26053" data-name="Path 26053" d="M262.433,81.281,258.4,78.972l-.184.008-1.248-3.164h-1.323V92.937h6.789Z" transform="translate(-255.644 -75.815)" fill="#e3e0e4"/>
    </g>
    <g id="Group_15627" data-name="Group 15627" transform="translate(120.679 75.815)">
      <path id="Path_26054" data-name="Path 26054" d="M282.125,81.281h5.466l-5.466-5.466Z" transform="translate(-282.125 -75.815)" fill="#dc4955"/>
    </g>
    <g id="Group_15628" data-name="Group 15628" transform="translate(112.189 81.796)">
      <path id="Path_26055" data-name="Path 26055" d="M112.189,195.541h9.317v5.476h-9.317Z" transform="translate(-112.189 -195.541)" fill="#dc4955"/>
    </g>
    <g id="Group_15631" data-name="Group 15631" transform="translate(112.88 83.143)">
      <g id="Group_15630" data-name="Group 15630" transform="translate(0)">
        <path id="Path_26057" data-name="Path 26057" d="M126.014,225.37V222.5h1.439a.955.955,0,1,1,0,1.909h-.7v.965Zm1.685-1.917a.308.308,0,0,0-.345-.31h-.6v.616h.6A.308.308,0,0,0,127.7,223.452Z" transform="translate(-126.014 -222.496)" fill="#fff"/>
        <path id="Path_26058" data-name="Path 26058" d="M181.469,225.37V222.5h1.206a1.441,1.441,0,1,1,0,2.874Zm2-1.439a.736.736,0,0,0-.793-.788h-.47v1.581h.465A.763.763,0,0,0,183.472,223.931Z" transform="translate(-178.699 -222.496)" fill="#fff"/>
        <path id="Path_26059" data-name="Path 26059" d="M244.169,225.37V222.5h2.107v.646H244.91v.448h1.336v.646H244.91v1.133Z" transform="translate(-238.266 -222.496)" fill="#fff"/>
      </g>
      <path id="Path_26060" data-name="Path 26060" d="M257.178,223.142V222.5h-1.534v2.874h.168v-1.133h1.336v-.646h-1.336v-.448Z" transform="translate(-249.168 -222.496)" fill="#e9edf5"/>
    </g>
    <g id="Group_15632" data-name="Group 15632" transform="translate(121.815 85.306)">
      <path id="Path_26061" data-name="Path 26061" d="M310.5,270.487V265.8h-3.727v4.688h-1.9l3.76,4.378,3.76-4.378Z" transform="translate(-304.877 -265.799)" fill="#1dd882"/>
    </g>
    <g id="Group_15633" data-name="Group 15633" transform="translate(125.575 85.306)">
      <path id="Path_26062" data-name="Path 26062" d="M382,270.487V265.8h-1.863v9.066l3.76-4.378Z" transform="translate(-380.135 -265.799)" fill="#2cc47f"/>
    </g>
  </g>
</svg>
