<svg xmlns="http://www.w3.org/2000/svg" xmlns:xlink="http://www.w3.org/1999/xlink" width="27.347" height="31.486" viewBox="0 0 27.347 31.486">
  <defs>
    <clipPath id="clip-path">
      <rect id="Rectangle_16918" data-name="Rectangle 16918" width="27.347" height="31.486" transform="translate(0 0)" fill="#3a61cc"/>
    </clipPath>
  </defs>
  <g id="Group_15493" data-name="Group 15493" transform="translate(0 0)">
    <g id="Group_15492" data-name="Group 15492" clip-path="url(#clip-path)">
      <path id="Path_25914" data-name="Path 25914" d="M6.08,7.886a.686.686,0,0,1-.021-1.372h7.654a.687.687,0,0,1,.653.707.688.688,0,0,1-.665.665Z" fill="#3a61cc"/>
      <path id="Path_25915" data-name="Path 25915" d="M6.114,13.313a.684.684,0,0,1-.652-.707.685.685,0,0,1,.664-.664H16.971A.686.686,0,0,1,17.5,13.1a.682.682,0,0,1-.479.215H6.114Z" fill="#3a61cc"/>
      <path id="Path_25916" data-name="Path 25916" d="M6.08,17.657a.686.686,0,0,1-.02-1.372h6.416a.687.687,0,0,1-.012,1.372Z" fill="#3a61cc"/>
      <path id="Path_25917" data-name="Path 25917" d="M6.113,22a.686.686,0,1,1-.053-1.371H9.871a.686.686,0,0,1,.532,1.155A.683.683,0,0,1,9.924,22H6.113Z" fill="#3a61cc"/>
      <path id="Path_25918" data-name="Path 25918" d="M5.028,28.512A5.041,5.041,0,0,1,0,23.484V5.028A5.041,5.041,0,0,1,5.028,0H18.056a5.041,5.041,0,0,1,5.027,5.029v8.9a.679.679,0,0,1-.684.653.691.691,0,0,1-.686-.665V5.028a3.666,3.666,0,0,0-3.657-3.657H5.028A3.667,3.667,0,0,0,1.371,5.028V23.484a3.669,3.669,0,0,0,3.657,3.658H9.871a.686.686,0,1,1,.058,1.37Z" fill="#3a61cc"/>
      <path id="Path_25919" data-name="Path 25919" d="M14.111,31.485a.673.673,0,0,1-.672-.671V28.832a3.026,3.026,0,0,1,.893-2.156l6.39-6.385,2.165-2.17a1.859,1.859,0,0,1,2.626,0l1.349,1.35a1.883,1.883,0,0,1,.485,1.257,1.845,1.845,0,0,1-.543,1.31l-2.166,2.171-6.39,6.385a3.054,3.054,0,0,1-2.155.891Zm1.172-3.855a1.67,1.67,0,0,0-.5,1.2v1.31h1.311a1.7,1.7,0,0,0,1.2-.5l.091-.09.1-.088,5.726-5.726L21.2,21.721ZM24.2,18.918a.506.506,0,0,0-.362.15l-1.689,1.695,2.017,2.016,1.688-1.694A.519.519,0,0,0,26,20.723a.509.509,0,0,0-.149-.365l-1.29-1.29a.506.506,0,0,0-.363-.15" fill="#3a61cc"/>
      <path id="Path_25920" data-name="Path 25920" d="M20.393,31.486a.672.672,0,0,1,0-1.344H26.1a.672.672,0,0,1,0,1.344Z" fill="#3a61cc"/>
    </g>
  </g>
</svg>
