<svg xmlns="http://www.w3.org/2000/svg" width="36.286" height="33.677" viewBox="0 0 36.286 33.677">
  <g id="Group_16078" data-name="Group 16078" transform="translate(-928.13 -413.323)">
    <path id="Path_26141" data-name="Path 26141" d="M369.28,99.519h2.327v3.135c3.919,0,7.838.008,11.761-.012a3.608,3.608,0,0,1,1.965.376,3.6,3.6,0,0,1,.384,1.982q-.029,10.194-.007,20.383a17.889,17.889,0,0,1-.133,3.427c-.157.814-1.136.834-1.79.861-4.057.011-8.118-.008-12.18,0V133.2h-2.432c-5.969-1.081-11.949-2.084-17.925-3.13V102.654C357.261,101.61,363.273,100.58,369.28,99.519Z" transform="translate(576.88 313.805)" fill="#28854a"/>
    <path id="Path_26142" data-name="Path 26142" d="M389.914,107.7h12.924v24.673H389.914v-2.351h3.135v-2.739h-3.135v-1.568h3.135v-2.74h-3.135V121.41h3.135v-2.741h-3.135V117.1h3.135v-2.74h-3.135V112.8h3.135v-2.745h-3.135Z" transform="translate(561.578 309.931)" fill="#fff"/>
    <path id="Path_26143" data-name="Path 26143" d="M398.836,112.158h5.486V114.9h-5.486Z" transform="translate(557.599 307.821)" fill="#28854a"/>
    <path id="Path_26144" data-name="Path 26144" d="M367.441,118.991q1.328-.095,2.663-.161-1.567,3.216-3.16,6.419c1.077,2.193,2.177,4.37,3.258,6.563q-1.414-.081-2.827-.181a46.373,46.373,0,0,1-1.954-4.916c-.532,1.59-1.292,3.09-1.9,4.649-.855-.012-1.716-.047-2.573-.083,1.006-1.97,1.978-3.956,3.015-5.914-.881-2.017-1.848-4-2.757-6q1.293-.077,2.585-.149c.583,1.531,1.221,3.043,1.7,4.614.517-1.665,1.288-3.231,1.95-4.841Z" transform="translate(569.961 304.661)" fill="#fff"/>
    <path id="Path_26145" data-name="Path 26145" d="M398.836,120.344h5.486v2.742h-5.486Zm0,4.308h5.486v2.742h-5.486Zm0,4.307h5.486V131.7h-5.486Zm0,4.308h5.486v2.742h-5.486Z" transform="translate(557.599 303.945)" fill="#28854a"/>
  </g>
</svg>
