<svg xmlns="http://www.w3.org/2000/svg" width="18.193" height="14.163" viewBox="0 0 18.193 14.163">
  <g id="eye_8_" data-name="eye (8)" transform="translate(0.004 -2.655)">
    <path id="Path_25940" data-name="Path 25940" d="M17.633,7.781A10.036,10.036,0,0,0,9.092,2.655,10.036,10.036,0,0,0,.551,7.781a3.719,3.719,0,0,0,0,3.912,10.036,10.036,0,0,0,8.541,5.126,10.036,10.036,0,0,0,8.541-5.126A3.719,3.719,0,0,0,17.633,7.781ZM16.341,10.9a8.573,8.573,0,0,1-7.249,4.4,8.573,8.573,0,0,1-7.249-4.4,2.211,2.211,0,0,1,0-2.325,8.573,8.573,0,0,1,7.249-4.4,8.567,8.567,0,0,1,7.249,4.4A2.211,2.211,0,0,1,16.341,10.9Z" fill="#5ab25d"/>
    <path id="Path_25941" data-name="Path 25941" d="M10.789,7a3.789,3.789,0,1,0,3.789,3.789A3.789,3.789,0,0,0,10.789,7Zm0,6.062a2.273,2.273,0,1,1,2.273-2.273A2.273,2.273,0,0,1,10.789,13.062Z" transform="translate(-1.697 -1.052)" fill="#5ab25d"/>
  </g>
</svg>
