<svg xmlns="http://www.w3.org/2000/svg" width="13.253" height="13.254" viewBox="0 0 13.253 13.254">
  <path id="filter_8_" data-name="filter (8)" d="M13.236,0H1.018A.518.518,0,0,0,.5.518,5.057,5.057,0,0,0,2.2,4.294L4.463,6.309a1.845,1.845,0,0,1,.619,1.378v5.049a.518.518,0,0,0,.8.431L8.941,11.13a.518.518,0,0,0,.231-.431V7.687A1.845,1.845,0,0,1,9.79,6.309l2.267-2.015a5.057,5.057,0,0,0,1.7-3.776A.518.518,0,0,0,13.236,0ZM11.37,3.52,9.1,5.535a2.881,2.881,0,0,0-.966,2.152v2.735L6.117,11.768V7.687a2.881,2.881,0,0,0-.966-2.152L2.884,3.52A4.022,4.022,0,0,1,1.569,1.035H12.684A4.021,4.021,0,0,1,11.37,3.52Zm0,0" transform="translate(-0.5 0)" fill="#fff"/>
</svg>
