<svg xmlns="http://www.w3.org/2000/svg" width="16.379" height="17.091" viewBox="0 0 16.379 17.091">
  <g id="google-maps_2_" data-name="google-maps (2)" transform="translate(-10.667)">
    <path id="Path_26005" data-name="Path 26005" d="M253.167,133.641v8.9a1.723,1.723,0,0,1-.3.983,1.646,1.646,0,0,1-.221.278l-7.064-7.064-.249-.249,4.864-4.864.306.192L253,133.335A.361.361,0,0,1,253.167,133.641Z" transform="translate(-226.834 -127.232)" fill="#cfd8dc"/>
    <path id="Path_26006" data-name="Path 26006" d="M23.364,66.257,18.251,71.37l-7.064,7.064a1.646,1.646,0,0,1-.221-.278,1.723,1.723,0,0,1-.3-.983V65.78A1.78,1.78,0,0,1,12.447,64h7.121a.423.423,0,0,1,.185.05l3.3,2.015Z" transform="translate(0 -61.864)" fill="#4caf50"/>
    <path id="Path_26007" data-name="Path 26007" d="M40.868,284.646a1.635,1.635,0,0,1-.278.221,1.723,1.723,0,0,1-.983.3H27.5a1.723,1.723,0,0,1-.983-.3,1.638,1.638,0,0,1-.278-.221l7.064-7.064.249-.249.249.249Z" transform="translate(-15.054 -268.075)" fill="#2196f3"/>
    <path id="Path_26008" data-name="Path 26008" d="M242.734,274.235a1.563,1.563,0,0,1-.5.5l-7.285-7.285a.352.352,0,0,1,.5-.5Z" transform="translate(-216.7 -257.941)" fill="#fafafa"/>
    <path id="Path_26009" data-name="Path 26009" d="M32.332,126.252l-4.921,4.921-7.285,7.285a1.562,1.562,0,0,1-.5-.5L31.72,125.867Z" transform="translate(-8.662 -121.665)" fill="#ffc107"/>
    <path id="Path_26013" data-name="Path 26013" d="M270.585,0a3.922,3.922,0,0,0-3.917,3.917,3.465,3.465,0,0,0,.063.641,3.821,3.821,0,0,0,.6,1.542c.165.285.356.581.558.9a14.558,14.558,0,0,1,2.344,5.536.356.356,0,0,0,.7,0A14.558,14.558,0,0,1,273.276,7c.2-.315.392-.61.543-.874a3.86,3.86,0,0,0,.617-1.559,3.513,3.513,0,0,0,.065-.647A3.922,3.922,0,0,0,270.585,0Z" transform="translate(-247.456)" fill="#f44336"/>
    <circle id="Ellipse_614" data-name="Ellipse 614" cx="1.78" cy="1.78" r="1.78" transform="translate(21.348 2.136)" fill="#c62828"/>
  </g>
</svg>
