<svg xmlns="http://www.w3.org/2000/svg" xmlns:xlink="http://www.w3.org/1999/xlink" width="27.714" height="32.088" viewBox="0 0 27.714 32.088">
  <defs>
    <clipPath id="clip-path">
      <rect id="Rectangle_16915" data-name="Rectangle 16915" width="27.714" height="32.088" transform="translate(0 0)" fill="none"/>
    </clipPath>
  </defs>
  <g id="Group_15487" data-name="Group 15487" transform="translate(0 0)">
    <g id="Group_15486" data-name="Group 15486" clip-path="url(#clip-path)">
      <path id="Path_25889" data-name="Path 25889" d="M6.08,7.886a.686.686,0,0,1-.021-1.372h7.654a.687.687,0,0,1,.653.707.688.688,0,0,1-.665.665Z" fill="#eca414"/>
      <path id="Path_25890" data-name="Path 25890" d="M6.114,13.314a.684.684,0,0,1-.652-.707.685.685,0,0,1,.664-.664H16.971A.686.686,0,0,1,17.5,13.1a.682.682,0,0,1-.479.215H6.114Z" fill="#eca414"/>
      <path id="Path_25891" data-name="Path 25891" d="M6.08,17.657a.686.686,0,0,1-.02-1.372h6.416a.687.687,0,0,1-.012,1.372Z" fill="#eca414"/>
      <path id="Path_25892" data-name="Path 25892" d="M6.113,22a.686.686,0,1,1-.053-1.371H9.871a.686.686,0,0,1,.532,1.155A.683.683,0,0,1,9.924,22H6.113Z" fill="#eca414"/>
      <path id="Path_25893" data-name="Path 25893" d="M5.028,28.512A5.041,5.041,0,0,1,0,23.484V5.028A5.041,5.041,0,0,1,5.028,0H18.056a5.041,5.041,0,0,1,5.027,5.029v8.9a.679.679,0,0,1-.684.653.691.691,0,0,1-.686-.665V5.028a3.666,3.666,0,0,0-3.657-3.657H5.028A3.667,3.667,0,0,0,1.371,5.028V23.484a3.669,3.669,0,0,0,3.657,3.658H9.871a.686.686,0,1,1,.058,1.37Z" fill="#eca414"/>
      <path id="Path_25894" data-name="Path 25894" d="M26.174,28.318a.573.573,0,0,0-.8.118c-.1.14-.216.277-.332.406a.575.575,0,0,0,.861.761c.135-.155.27-.316.392-.483a.575.575,0,0,0-.118-.8" fill="#eca414"/>
      <path id="Path_25895" data-name="Path 25895" d="M27.135,25.625a.573.573,0,0,0-.683.439c-.037.17-.083.341-.136.507a.575.575,0,0,0,1.1.339c.061-.2.114-.4.158-.6a.573.573,0,0,0-.437-.682" fill="#eca414"/>
      <path id="Path_25896" data-name="Path 25896" d="M23.41,30.156c-.153.085-.311.165-.469.236a.574.574,0,1,0,.473,1.047c.188-.085.375-.18.556-.28a.574.574,0,1,0-.56-1Z" fill="#eca414"/>
      <path id="Path_25897" data-name="Path 25897" d="M19.789,20.144V24.5l-2.106,2.106a.575.575,0,0,0,.813.812l2.274-2.274a.574.574,0,0,0,.168-.406V20.144a.574.574,0,1,0-1.148,0Z" fill="#eca414"/>
      <path id="Path_25898" data-name="Path 25898" d="M27.14,18.622a.574.574,0,0,0-.574.574v1.6a7.35,7.35,0,1,0-6.2,11.3h.029c.207,0,.416-.009.621-.026a.574.574,0,0,0-.095-1.145c-.174.015-.351.022-.526.022h-.029a6.2,6.2,0,1,1,5.337-9.36h-1.58a.574.574,0,0,0,0,1.148h1.755a1.824,1.824,0,0,0,.956-.268.554.554,0,0,0,.051-.033,1.838,1.838,0,0,0,.831-1.535V19.2a.574.574,0,0,0-.574-.575" fill="#eca414"/>
    </g>
  </g>
</svg>
