<svg xmlns="http://www.w3.org/2000/svg" width="31" height="19.641" viewBox="0 0 31 19.641">
  <g id="Group_15477" data-name="Group 15477" transform="translate(-290.5 -23.5)">
    <path id="Line_844" data-name="Line 844" d="M21,1H0A1,1,0,0,1-1,0,1,1,0,0,1,0-1H21a1,1,0,0,1,1,1A1,1,0,0,1,21,1Z" transform="translate(291.5 24.5)" fill="#333"/>
    <path id="Line_845" data-name="Line 845" d="M29,1H0A1,1,0,0,1-1,0,1,1,0,0,1,0-1H29a1,1,0,0,1,1,1A1,1,0,0,1,29,1Z" transform="translate(291.5 33.32)" fill="#333"/>
    <path id="Line_846" data-name="Line 846" d="M15,1H0A1,1,0,0,1-1,0,1,1,0,0,1,0-1H15a1,1,0,0,1,1,1A1,1,0,0,1,15,1Z" transform="translate(291.5 42.141)" fill="#333"/>
  </g>
</svg>
