<svg xmlns="http://www.w3.org/2000/svg" xmlns:xlink="http://www.w3.org/1999/xlink" width="23.488" height="21.929" viewBox="0 0 23.488 21.929">
  <defs>
    <clipPath id="clip-path">
      <rect id="Rectangle_592" data-name="Rectangle 592" width="23.488" height="21.929" fill="#fff"/>
    </clipPath>
  </defs>
  <g id="Group_15472" data-name="Group 15472" transform="translate(0)">
    <g id="Group_1105" data-name="Group 1105" transform="translate(0)" clip-path="url(#clip-path)">
      <path id="Path_1027" data-name="Path 1027" d="M0,15.735V1.79a.636.636,0,0,0,.034-.083A2.062,2.062,0,0,1,2.209,0H21.292a2.067,2.067,0,0,1,2.2,2.2q0,6.56,0,13.119a2.071,2.071,0,0,1-2.211,2.206H14.758l.5,3a.3.3,0,0,0,.065.023c.26,0,.52,0,.78,0a.689.689,0,1,1,0,1.375q-4.358,0-8.716,0a.689.689,0,1,1,0-1.375c.274,0,.548,0,.84,0l.5-3.028h-.3q-3.165,0-6.33,0A2.067,2.067,0,0,1,.1,16.108c-.04-.122-.07-.248-.1-.372M11.056,1.377H2.178a.708.708,0,0,0-.8.8q0,6.582,0,13.163a.708.708,0,0,0,.8.8H21.3a.713.713,0,0,0,.809-.819q0-6.57,0-13.14a.712.712,0,0,0-.815-.812H12.432c0,.26,0,.495,0,.73a.689.689,0,1,1-1.375.009c0-.236,0-.472,0-.739M9.623,20.54h4.243l-.5-3H10.123l-.5,3" transform="translate(0 0)" fill="#fff"/>
      <path id="Path_1028" data-name="Path 1028" d="M212.336,81.834a3.991,3.991,0,1,1-3.988-3.982,4,4,0,0,1,3.988,3.982m-6.25,1.294c.509-.509,1.018-1.014,1.518-1.525a.334.334,0,0,0,.051-.211c0-.42,0-.839,0-1.259V79.34a2.592,2.592,0,0,0-1.571,3.788m4.765-.6c-.718,0-1.42,0-2.122,0a.222.222,0,0,0-.144.049c-.509.5-1.015,1.011-1.524,1.52a2.593,2.593,0,0,0,3.789-1.571m-1.8-3.209v1.822h1.815a2.652,2.652,0,0,0-1.815-1.822" transform="translate(-191.83 -73.081)" fill="#fff"/>
      <path id="Path_1029" data-name="Path 1029" d="M52.956,79.14h1.56c0-.605,0-1.2,0-1.794,0-.161-.007-.322,0-.482a.69.69,0,0,1,.677-.648.671.671,0,0,1,.689.633q.02,1.525,0,3.05a.666.666,0,0,1-.716.627c-.657,0-1.315,0-1.972,0H49.434a.7.7,0,0,1-.789-.792q0-3.589,0-7.179a.693.693,0,0,1,.37-.662.639.639,0,0,1,.695.034.733.733,0,0,1,.314.672q-.005,3.119,0,6.238v.293h1.56V78.9c0-1.384,0-2.767,0-4.151a.685.685,0,0,1,.975-.664.7.7,0,0,1,.4.689q0,2.053,0,4.105v.264" transform="translate(-45.662 -67.408)" fill="#fff"/>
    </g>
  </g>
</svg>
