<svg xmlns="http://www.w3.org/2000/svg" width="14.162" height="14.162" viewBox="0 0 14.162 14.162">
  <g id="cancel_5_" data-name="cancel (5)" transform="translate(1 1)">
    <g id="Group_15551" data-name="Group 15551" transform="translate(-1 -1)">
      <g id="Group_15550" data-name="Group 15550" transform="translate(0)">
        <path id="Path_25969" data-name="Path 25969" d="M11.088,1.074a7.081,7.081,0,1,0,0,10.014A7.081,7.081,0,0,0,11.088,1.074Zm-.834,9.179a5.9,5.9,0,1,1,0-8.345A5.9,5.9,0,0,1,10.254,10.253Z" transform="translate(1 1)" fill="#e6775a"/>
        <path id="Path_25970" data-name="Path 25970" d="M149.168,143.333a.59.59,0,0,0-.835,0l-2.086,2.086-2.086-2.086a.59.59,0,0,0-.835.835l2.086,2.086-2.086,2.086a.59.59,0,1,0,.835.835l2.085-2.086,2.086,2.086a.59.59,0,1,0,.835-.835l-2.086-2.086,2.086-2.086A.59.59,0,0,0,149.168,143.333Z" transform="translate(-139.166 -139.172)" fill="#e6775a"/>
      </g>
    </g>
  </g>
</svg>
